<svg width="500" height="500" viewBox="0 0 500 500" fill="none" xmlns="http://www.w3.org/2000/svg">
<path d="M192.812 6.95107C189.259 4.97681 184.784 6.16136 182.809 9.71503L178.071 18.1386C176.097 21.6922 177.281 26.1672 180.835 28.1415C180.835 28.1415 182.941 29.326 185.573 30.7738C188.206 32.2216 187.153 34.3275 183.204 35.5121C91.73 63.9414 25 149.361 25 250.18C25 357.975 101.206 448.264 202.684 469.981C206.632 470.771 209.922 468.139 209.922 464.058V448.791C209.922 444.711 206.632 440.762 202.684 439.841C117.659 418.65 54.4823 341.786 54.4823 250.312C54.4823 163.313 111.736 89.4752 190.575 64.3363C194.392 63.1517 196.497 64.2046 195.181 66.5738L192.812 70.9171C190.838 74.4708 192.023 78.9458 195.576 80.9201L204 85.6583C207.553 87.6325 212.028 86.448 214.003 82.8943L229.402 55.6495C231.376 52.0959 234.14 47.3576 235.456 44.9885C236.641 42.8826 237.825 40.7768 237.825 40.7768C239.8 37.2231 238.615 32.7481 235.061 30.7738L192.812 6.95107Z" fill="white"/>
<path d="M416.957 400.619C420.773 396.407 424.327 392.195 427.749 387.72C431.303 382.982 434.593 378.507 437.752 373.769C438.015 373.374 438.279 372.979 438.542 372.584C441.437 368.109 444.333 363.371 446.965 358.633C447.36 357.975 447.623 357.448 448.018 356.79C450.519 352.184 452.888 347.314 455.126 342.444C455.52 341.654 455.784 340.864 456.179 340.075C458.284 335.205 460.259 330.335 461.97 325.334C462.233 324.544 462.496 323.623 462.891 322.833C464.602 317.831 466.181 312.698 467.498 307.565C467.761 306.776 467.892 305.854 468.156 305.065C469.472 299.8 470.656 294.404 471.578 289.007C471.709 288.349 471.841 287.559 471.973 286.901C472.894 281.373 473.684 275.714 474.079 269.923C474.079 269.396 474.079 269.001 474.21 268.475C474.737 262.42 475 256.366 475 250.312C475 243.468 474.737 236.623 474.079 229.911C465.129 131.33 392.212 50.9113 297.316 30.6422C293.368 29.8525 290.077 32.4848 290.077 36.565V51.8326C290.077 55.9127 293.368 59.8613 297.316 60.9142C310.346 64.2046 322.85 68.8112 334.696 74.4708C335.617 74.8656 336.538 75.2605 337.328 75.6554C338.776 76.3134 339.96 77.2348 341.408 77.8929C403.268 110.666 445.518 175.685 445.518 250.443C445.518 256.234 445.254 261.894 444.728 267.422C444.596 269.396 444.201 271.239 443.938 273.213C443.543 276.898 443.148 280.452 442.49 284.006C442.095 286.375 441.437 288.612 441.043 290.981C440.384 294.009 439.726 297.167 438.937 300.195C438.279 302.695 437.489 305.196 436.699 307.565C435.909 310.329 435.12 312.962 434.067 315.726C433.145 318.358 432.093 320.859 431.04 323.491C430.118 325.86 429.065 328.361 428.012 330.73C426.828 333.362 425.512 335.995 424.064 338.627C423.011 340.733 421.958 342.839 420.773 344.945C419.194 347.709 417.615 350.341 416.035 352.973C414.851 354.816 413.798 356.659 412.613 358.501C410.771 361.265 408.796 363.897 406.822 366.53C405.637 368.109 404.453 369.689 403.268 371.136C401.162 373.9 398.793 376.533 396.556 379.165C395.371 380.481 394.318 381.797 393.134 382.982C390.633 385.746 388.001 388.247 385.368 390.879C384.315 391.932 383.262 392.985 382.078 393.906C379.182 396.539 376.287 399.039 373.26 401.54C372.207 402.33 371.285 403.12 370.232 403.909C366.942 406.41 363.783 408.911 360.361 411.148C359.44 411.675 358.65 412.333 357.729 412.859C354.175 415.228 350.49 417.597 346.673 419.703C346.015 420.098 345.225 420.493 344.567 420.888C340.618 423.125 336.538 425.231 332.458 427.074C331.932 427.337 331.405 427.6 330.879 427.864C326.535 429.838 322.192 431.681 317.585 433.392C317.191 433.523 316.927 433.655 316.532 433.786C311.794 435.497 307.056 437.077 302.055 438.393L306.924 429.706C308.899 426.153 307.714 421.678 304.16 419.703L295.737 414.965C292.183 412.991 287.708 414.175 285.734 417.729L266.781 451.423L262.043 459.847C260.069 463.4 261.253 467.875 264.807 469.85L306.924 493.541C310.478 495.515 314.953 494.33 316.927 490.777L321.666 482.353C323.64 478.8 322.455 474.325 318.902 472.35C318.902 472.35 316.796 471.166 314.163 469.718C311.531 468.27 309.557 466.954 309.688 466.954C309.82 466.954 309.82 466.954 309.952 466.822C315.348 465.375 320.744 463.532 326.009 461.689C326.535 461.558 326.93 461.426 327.457 461.163C332.59 459.32 337.723 457.214 342.593 454.845C343.251 454.582 343.909 454.187 344.567 453.924C349.305 451.686 354.043 449.317 358.65 446.685C359.44 446.29 360.229 445.895 360.888 445.369C365.363 442.736 369.838 440.104 374.181 437.208C374.971 436.682 375.76 436.155 376.418 435.629C380.63 432.733 384.842 429.706 388.922 426.416C389.58 425.889 390.238 425.363 391.028 424.705C395.108 421.414 399.057 417.992 402.874 414.439C403.4 413.912 403.926 413.386 404.585 412.859C408.533 409.174 412.218 405.357 415.904 401.408C416.167 401.408 416.562 401.014 416.957 400.619Z" fill="white"/>
</svg>
