<svg width="500" height="500" viewBox="0 0 500 500" fill="none" xmlns="http://www.w3.org/2000/svg">
<g clip-path="url(#clip0_120_11)">
<path d="M426.571 250V442.857C426.571 460.651 412.222 475 394.429 475H330.143V359.152C344.301 352.934 354.25 338.871 354.25 322.321C354.25 300.128 336.265 282.143 314.071 282.143C291.878 282.143 273.893 300.128 273.893 322.321C273.893 338.776 283.842 352.934 298 359.152V475H265.857V418.75C265.857 413.68 263.466 408.897 259.448 405.931L224.531 379.719C230.653 353.795 210.851 330.357 185.5 330.357C163.306 330.357 145.321 348.342 145.321 370.536C145.321 400.861 177.943 420.855 205.207 405.357L233.714 426.786V475H105.143C87.3495 475 73 460.651 73 442.857V250C73 232.207 87.3495 217.857 105.143 217.857H394.429C412.222 217.857 426.571 232.207 426.571 250Z" fill="white"/>
<path d="M121.214 185.714V153.571C121.214 82.6849 178.899 25 249.786 25C320.672 25 378.357 82.6849 378.357 153.571V185.714H330.143V153.571C330.143 109.279 294.078 73.2143 249.786 73.2143C205.494 73.2143 169.429 109.279 169.429 153.571V185.714H121.214Z" fill="white"/>
</g>
<defs>
<clipPath id="clip0_120_11">
<rect width="353.571" height="450" fill="white" transform="translate(73 25)"/>
</clipPath>
</defs>
</svg>
