<svg width="500" height="500" viewBox="0 0 500 500" fill="none" xmlns="http://www.w3.org/2000/svg">
<path d="M25.002 105.356C25.002 83.1669 42.9914 65.1775 65.1804 65.1775C81.6487 65.1775 95.7628 75.1025 101.969 89.2836H145.537C150.701 89.2836 155.544 91.7649 158.567 95.9463L197.89 150.392C188.316 155.422 179.568 161.785 171.859 169.244L137.32 121.428H101.969C95.7663 135.601 81.6487 145.534 65.1804 145.534C42.9914 145.534 25.002 127.545 25.002 105.356V105.356Z" fill="white"/>
<path d="M25.002 249.998C25.002 227.809 42.9914 209.82 65.1804 209.82C81.6487 209.82 95.7628 219.745 101.969 233.926H138.788C137.08 245.797 137.084 254.224 138.788 266.07H101.969C95.7663 280.244 81.6487 290.176 65.1804 290.176C42.9914 290.176 25.002 272.187 25.002 249.998V249.998Z" fill="white"/>
<path d="M209.823 65.1784C209.823 42.9894 227.812 25 250.001 25C272.19 25 290.18 42.9894 290.18 65.1784C290.18 81.6468 280.255 95.757 266.073 101.967V138.786C254.209 137.078 245.771 137.082 233.929 138.786V101.967C219.748 95.7568 209.823 81.6468 209.823 65.1784V65.1784Z" fill="white"/>
<path d="M302.118 150.394L341.44 95.9484C344.456 91.7706 349.299 89.2894 354.463 89.2894H398.031C404.234 75.1083 418.351 65.1833 434.82 65.1833C457.009 65.1833 474.998 83.1727 474.998 105.362C474.998 127.551 457.009 145.54 434.82 145.54C418.351 145.54 404.241 135.607 398.031 121.434H362.68L328.148 169.25C320.439 161.791 311.691 155.424 302.117 150.394L302.118 150.394Z" fill="white"/>
<path d="M475 394.64C475 416.829 457.011 434.819 434.822 434.819C418.353 434.819 404.239 424.894 398.033 410.713H354.465C349.301 410.713 344.457 408.231 341.435 404.05L302.112 349.604C311.686 344.575 320.434 338.211 328.143 330.752L362.682 378.568H398.033C404.236 364.395 418.353 354.462 434.822 354.462C457.011 354.462 475 372.452 475 394.641V394.64Z" fill="white"/>
<path d="M197.884 349.602L158.562 404.048C155.542 408.229 150.699 410.711 145.535 410.711H101.967C95.7643 424.892 81.6468 434.817 65.1784 434.817C42.9894 434.817 25 416.827 25 394.638C25 372.449 42.9894 354.46 65.1784 354.46C81.6468 354.46 95.757 364.392 101.967 378.566H137.318L171.854 330.75C179.559 338.208 188.307 344.572 197.885 349.602L197.884 349.602Z" fill="white"/>
<path d="M475 249.998C475 272.187 457.011 290.176 434.822 290.176C418.353 290.176 404.243 280.244 398.033 266.07H361.218C362.926 254.206 362.926 245.779 361.218 233.926H398.036C404.24 219.745 418.357 209.82 434.826 209.82C457.011 209.82 475 227.809 475 249.998Z" fill="white"/>
<path d="M290.18 434.819C290.18 457.008 272.19 474.997 250.001 474.997C227.812 474.997 209.823 457.008 209.823 434.819C209.823 418.35 219.748 404.24 233.929 398.03V361.215C245.793 362.923 254.216 362.923 266.073 361.215V398.034C280.255 404.24 290.18 418.35 290.18 434.819V434.819Z" fill="white"/>
<path d="M338.393 249.998C338.393 298.816 298.821 338.389 250.003 338.389C201.185 338.389 161.612 298.816 161.612 249.998C161.612 201.18 201.185 161.608 250.003 161.608C298.821 161.608 338.393 201.18 338.393 249.998Z" fill="white"/>
</svg>
