<svg width="500" height="500" viewBox="0 0 500 500" fill="none" xmlns="http://www.w3.org/2000/svg">
<g clip-path="url(#clip0_120_10)">
<path d="M346.429 290.107C346.429 329.999 378.858 362.429 418.75 362.429H475V426.714C475 444.508 460.651 458.857 442.857 458.857H282.143V343.009C296.301 336.791 306.25 322.728 306.25 306.179C306.25 283.985 288.265 266 266.071 266C243.878 266 225.893 283.985 225.893 306.179C225.893 322.633 235.842 336.791 250 343.009V458.857H201.786V378.5C201.786 372.952 198.916 367.786 194.228 364.916L161.033 344.157C164.764 318.615 144.866 298.143 121.429 298.143C99.2347 298.143 81.25 316.128 81.25 338.321C81.25 370.847 117.793 389.501 144.101 371.421L169.643 387.397V458.857H57.1429C39.3495 458.857 25 444.508 25 426.714V97.25C25 66.1594 50.1594 41 81.25 41H390.625C401.722 41 410.714 49.9923 410.714 61.0893C410.714 72.1862 401.722 81.1786 390.625 81.1786H85.2679C74.2666 81.1786 65.1786 90.2666 65.1786 101.268C65.1786 112.269 74.2666 121.357 85.2679 121.357H442.857C460.651 121.357 475 135.707 475 153.5V217.786H418.75C378.858 217.786 346.429 250.216 346.429 290.107Z" fill="white"/>
<path d="M418.75 249.929H475V330.286H418.75C396.556 330.286 378.571 312.301 378.571 290.107C378.571 267.913 396.556 249.929 418.75 249.929Z" fill="white"/>
</g>
<defs>
<clipPath id="clip0_120_10">
<rect width="450" height="417.857" fill="white" transform="translate(25 41)"/>
</clipPath>
</defs>
</svg>
